<?xml version="1.0" encoding="UTF-8" standalone="no"?>
<svg
   width="152px"
   height="57px"
   viewBox="0 0 152 57"
   version="1.1"
   id="svg11"
   sodipodi:docname="Logo-Continental-Edison.svg"
   inkscape:version="1.2.2 (732a01da63, 2022-12-09)"
   xmlns:inkscape="http://www.inkscape.org/namespaces/inkscape"
   xmlns:sodipodi="http://sodipodi.sourceforge.net/DTD/sodipodi-0.dtd"
   xmlns="http://www.w3.org/2000/svg"
   xmlns:svg="http://www.w3.org/2000/svg"
   xmlns:rdf="http://www.w3.org/1999/02/22-rdf-syntax-ns#"
   xmlns:cc="http://creativecommons.org/ns#"
   xmlns:dc="http://purl.org/dc/elements/1.1/">
  <title
     id="title246">Continental edison logo</title>
  <defs
     id="defs15" />
  <sodipodi:namedview
     id="namedview13"
     pagecolor="#ffffff"
     bordercolor="#000000"
     borderopacity="0.25"
     inkscape:showpageshadow="2"
     inkscape:pageopacity="0.0"
     inkscape:pagecheckerboard="0"
     inkscape:deskcolor="#d1d1d1"
     showgrid="false"
     inkscape:zoom="11.506579"
     inkscape:cx="63.2247"
     inkscape:cy="28.505432"
     inkscape:window-width="2160"
     inkscape:window-height="1256"
     inkscape:window-x="-11"
     inkscape:window-y="250"
     inkscape:window-maximized="1"
     inkscape:current-layer="svg11" />
  
  <desc
     id="desc4">Continental edison logo.</desc>
  <g
     id="Desktop"
     stroke="none"
     stroke-width="1"
     fill="none"
     fill-rule="evenodd">
    <g
       id="Home"
       transform="translate(-92.000000, -33.000000)"
       fill="#6D6E71">
      <g
         id="Header"
         transform="translate(92.000000, 0.000000)">
        <g
           id="Menu"
           transform="translate(0.000000, 33.000000)">
          <path
             d="M66.261387,33.6239198 C56.9005693,33.6239198 49.3121273,26.096949 49.3121273,16.8119599 C49.3121273,7.52697083 56.9005693,-2.67160846e-14 66.261387,-2.84217094e-14 L66.261387,33.6239198 Z M85.7461731,33.423294 L85.7461731,33.6239198 C76.3853555,33.6239198 68.7969134,26.096949 68.7969134,16.8119599 C68.7969134,7.52697083 76.3853555,-2.8990251e-14 85.7461731,-2.84217094e-14 C95.1069908,-2.78531678e-14 102.695433,7.52697083 102.695433,16.8119599 L85.7461731,16.8119599 L85.7461731,33.423294 Z M8.47883471,47.7226553 C8.31641703,47.4664193 8.11122396,47.2394662 7.87204206,47.0515144 C7.62599688,46.853661 7.34741957,46.6993415 7.04853776,46.5953297 C6.73964116,46.4850583 6.41366544,46.429283 6.08537482,46.43053 C5.54344609,46.4150481 5.00646776,46.5366978 4.52505087,46.7840134 C4.10522686,47.0139332 3.74819409,47.3418412 3.4848349,47.7393741 C3.21220648,48.1514719 3.01570652,48.6084144 2.90452924,49.0888211 C2.78388944,49.5952373 2.72248411,50.113756 2.72152828,50.634117 C2.72124334,51.1411595 2.78268843,51.6463809 2.90452924,52.1388101 C3.01757902,52.6082018 3.21408857,53.0538435 3.4848349,53.4548195 C3.75240271,53.8444249 4.10877439,54.1659979 4.52505087,54.3934614 C5.00668837,54.6399498 5.54365507,54.7607749 6.08537482,54.7445564 C6.91851076,54.7445564 7.56864574,54.4937743 8.03577976,53.9874331 C8.52819377,53.429845 8.82922184,52.7314633 8.89540268,51.9931176 L11.5296533,51.9931176 C11.4731875,52.7121152 11.2915109,53.4159649 10.99269,54.0734156 C10.7186212,54.6677605 10.3300865,55.203246 9.84893398,55.6497607 C9.36866833,56.0920153 8.80365106,56.4339651 8.18747793,56.6552778 C7.51410597,56.890954 6.80420483,57.0073693 6.09019064,56.9992077 C5.21284094,57.013012 4.34212913,56.8462983 3.53299305,56.5095853 C2.80358995,56.2061449 2.1489383,55.7498899 1.61389091,55.1720804 C1.0817533,54.5841914 0.672530808,53.8973959 0.40993724,53.1514925 C0.128217161,52.3420449 -0.0102710651,51.4903733 0.000592992905,50.634117 C-0.0069992432,49.765816 0.133851887,48.9025204 0.417160962,48.0809156 C0.679950115,47.3250753 1.08891005,46.6273623 1.62111463,46.0268901 C2.1537684,45.4337733 2.81140952,44.9641073 3.54744049,44.6511707 C4.35509777,44.3086844 5.22637351,44.1386076 6.10463808,44.1519947 C6.75811451,44.149193 7.40803345,44.2475028 8.03096395,44.4433797 C8.62075069,44.6301143 9.17262297,44.9187737 9.66111721,45.2960391 C10.1409999,45.6764873 10.5403386,46.1472665 10.836176,46.6813121 C11.1588573,47.2661717 11.3594914,47.9094981 11.4261133,48.5729263 L8.77741522,48.5729263 C8.73785361,48.272162 8.63621174,47.9827153 8.47883471,47.7226553 Z M12.8708577,50.354674 C13.273125,49.2379142 14.147512,48.3514146 15.2643176,47.9280579 C15.8729394,47.69788 16.5200861,47.5844121 17.1713802,47.5936816 C17.829028,47.5833224 18.4826889,47.6967864 19.0977061,47.9280579 C20.2211044,48.3462613 21.1018783,49.2338786 21.5056134,50.354674 C21.7315766,50.9746569 21.8425238,51.6300931 21.8330888,52.2892794 C21.8376993,52.9472055 21.7210039,53.6004244 21.488758,54.2167197 C21.2828925,54.7663206 20.9638955,55.2673754 20.5520821,55.6879751 C20.1367514,56.1009156 19.6365972,56.420246 19.0856665,56.6242286 C18.4695747,56.8508589 17.8163515,56.9618172 17.1593406,56.9514397 C16.5086969,56.9606115 15.8620098,56.8496539 15.252278,56.6242286 C14.7092602,56.4172003 14.2168003,56.0980662 13.8075336,55.6879751 C13.3949355,55.2679888 13.0758276,54.7667597 12.8708577,54.2167197 C12.6438247,53.600264 12.5320348,52.9479081 12.5409744,52.2916679 C12.5319662,51.6315306 12.643736,50.9752456 12.8708577,50.354674 Z M15.1078036,53.3282342 C15.1709345,53.6509624 15.291616,53.9599278 15.4641739,54.2406037 C15.6289788,54.5080591 15.8592365,54.7298791 16.1335721,54.8854721 C16.452776,55.0552977 16.811819,55.1377363 17.1737881,55.1243123 C17.5379982,55.137072 17.8991979,55.0547102 18.2212278,54.8854721 C18.4989782,54.7318801 18.7320412,54.5097545 18.8978497,54.2406037 C19.073784,53.960592 19.1977412,53.6515914 19.2638517,53.3282342 C19.3336792,52.9862774 19.3683699,52.6381788 19.3673917,52.2892794 C19.3681364,51.9364397 19.3334519,51.5844035 19.2638517,51.2383827 C19.2028204,50.9158051 19.0819858,50.6072574 18.9074814,50.3284016 C18.7389774,50.0614112 18.506541,49.839883 18.2308594,49.6835331 C17.907013,49.5072122 17.5404081,49.422915 17.1713802,49.4399162 C16.4802397,49.4073809 15.8260385,49.7505941 15.4641739,50.3355668 C15.2896694,50.6144226 15.1688348,50.9229703 15.1078036,51.2455479 C15.0382033,51.5915687 15.0035188,51.9436049 15.0042636,52.2964447 C15.003772,52.64295 15.0384604,52.9886237 15.1078036,53.3282342 Z M25.5244107,47.8349102 L25.5244107,49.0721023 L25.5749768,49.0721023 C25.8542503,48.5864505 26.2735183,48.1946993 26.7789304,47.9471651 C27.2542951,47.716317 27.7762676,47.5954556 28.3055437,47.5936816 C28.8582978,47.5747524 29.4092841,47.6657042 29.9260653,47.8611826 C30.3177891,48.0163365 30.6615514,48.2708343 30.922939,48.5991988 C31.1781069,48.9412039 31.3533069,49.3352701 31.4358232,49.7527968 C31.5373135,50.2479434 31.5865398,50.7522278 31.5827056,51.2574899 L31.5827056,56.7245415 L29.1170085,56.7245415 L29.1170085,51.7088978 C29.1170085,50.9756585 29.0014289,50.4263261 28.7702698,50.0656774 C28.5391107,49.7050288 28.1297665,49.5235102 27.5398292,49.5235102 C26.8704309,49.5235102 26.3848363,49.7217476 26.0830452,50.1182223 C25.7820568,50.5123085 25.6327666,51.1643422 25.6327666,52.0695465 L25.6327666,56.7245415 L23.1718853,56.7245415 L23.1718853,47.8349102 L25.5244107,47.8349102 Z M38.1370293,47.8349102 L38.1370293,49.468577 L36.3359146,49.468577 L36.3359146,53.8704014 C36.3359146,54.2835949 36.4033361,54.5582611 36.5429947,54.6967884 C36.6826533,54.8353157 36.9595626,54.902191 37.3761306,54.902191 C37.5133813,54.902191 37.6458162,54.902191 37.7734353,54.8854721 C37.8955234,54.874671 38.0169096,54.8571289 38.1370293,54.8329273 L38.1370293,56.7245415 C37.9075384,56.7618447 37.6759337,56.7849771 37.443552,56.7938051 C37.1907218,56.8057472 36.9427073,56.810524 36.6995087,56.810524 C36.3369172,56.8115711 35.9747438,56.7860251 35.6159504,56.7340951 C35.2988234,56.6898908 34.992681,56.5878602 34.7129851,56.4331565 C34.4515678,56.2825434 34.2386386,56.0614 34.0989687,55.7954532 C33.9339219,55.459108 33.8561228,55.0872198 33.8726254,54.7135072 L33.8726254,49.4590234 L32.3821308,49.4590234 L32.3821308,47.8253566 L33.8726254,47.8253566 L33.8726254,45.1694538 L36.3359146,45.1694538 L36.3359146,47.8349102 L38.1370293,47.8349102 Z M39.3048644,46.4591908 L39.3048644,44.4457681 L41.7657457,44.4457681 L41.7657457,46.4591908 L39.3048644,46.4591908 Z M41.7657457,47.8349102 L41.7657457,56.7245415 L39.3048644,56.7245415 L39.3048644,47.8349102 L41.7657457,47.8349102 Z M45.8615961,47.8349102 L45.8615961,49.0721023 L45.91457,49.0721023 C46.1929025,48.5857167 46.6124292,48.1937238 47.1185237,47.9471651 C47.5938883,47.716317 48.1158609,47.5954556 48.6451369,47.5936816 C49.1978911,47.5747524 49.7488773,47.6657042 50.2656586,47.8611826 C50.6579434,48.0153412 51.001947,48.2700176 51.2625322,48.5991988 C51.5177002,48.9412039 51.6929001,49.3352701 51.7754165,49.7527968 C51.8769067,50.2479434 51.9261331,50.7522278 51.9222988,51.2574899 L51.9222988,56.7245415 L49.4686412,56.7245415 L49.4686412,51.7088978 C49.4686412,50.9756585 49.3506538,50.4263261 49.1219026,50.0656774 C48.8931514,49.7050288 48.4789913,49.5235102 47.889054,49.5235102 C47.2196558,49.5235102 46.7380743,49.7217476 46.4443096,50.1182223 C46.1457291,50.5123085 45.994031,51.1643422 45.994031,52.0695465 L45.994031,56.7245415 L43.5211101,56.7245415 L43.5211101,47.8349102 L45.8615961,47.8349102 Z M56.2589399,54.5916987 C56.6297577,54.9483667 57.1619052,55.1267007 57.8553825,55.1267007 C58.3115131,55.1380937 58.759959,55.008739 59.1387971,54.7564985 C59.441564,54.5773552 59.6735042,54.3009446 59.7961558,53.9731027 L61.9632724,53.9731027 C61.6165337,55.0415144 61.0851889,55.8042107 60.3692377,56.2611916 C59.5885201,56.7370125 58.6846099,56.9761027 57.7686978,56.9490513 C57.1174927,56.956141 56.4709501,56.8393927 55.8640431,56.6051214 C55.3168559,56.3971454 54.8233011,56.0707742 54.4192987,55.6497607 C54.0182337,55.2230743 53.7085943,54.7201268 53.5091097,54.17134 C53.2894647,53.5647963 53.1810051,52.9241637 53.1888581,52.2797258 C53.1823925,51.6454584 53.2942341,51.0154736 53.5187414,50.4215493 C53.9332907,49.3041484 54.7964678,48.4073165 55.9025696,47.9447767 C56.4920012,47.6980796 57.1265966,47.575279 57.7662899,47.584128 C58.4570156,47.5675936 59.1413809,47.7184428 59.7600372,48.0235939 C60.3139751,48.3013872 60.794093,48.7047905 61.1614393,49.201076 C61.5332259,49.7056948 61.8015608,50.2777791 61.9512329,50.8848992 C62.1139282,51.5308837 62.1724429,52.1983522 62.1246022,52.8624959 L55.6521473,52.8624959 C55.6890685,53.6618143 55.8913327,54.2382153 56.2589399,54.5916987 Z M59.0424808,49.9175965 C58.7487161,49.5975507 58.2984374,49.4399162 57.6988685,49.4399162 C57.3610277,49.428669 57.0252727,49.4965853 56.7188502,49.6381535 C56.4792544,49.7518494 56.2666947,49.9146586 56.0952022,50.1158339 C55.9450837,50.2992594 55.8329764,50.5102942 55.7653189,50.7368183 C55.707466,50.9266917 55.6695409,51.1219847 55.6521473,51.3195883 L59.6589051,51.3195883 C59.5872866,50.804932 59.3739963,50.3198258 59.0424808,49.9175965 Z M65.7509106,47.8349102 L65.7509106,49.0721023 L65.8014767,49.0721023 C66.0807502,48.5864505 66.5000182,48.1946993 67.0054303,47.9471651 C67.4807099,47.7160803 68.0027381,47.595206 68.5320436,47.5936816 C69.084785,47.5749458 69.6357329,47.6658912 70.1525652,47.8611826 C70.544289,48.0163365 70.8880513,48.2708343 71.1494389,48.5991988 C71.4048866,48.9407647 71.579375,49.3350817 71.6599152,49.7527968 C71.7634712,50.2476699 71.8135176,50.7520872 71.8092055,51.2574899 L71.8092055,56.7245415 L69.3483242,56.7245415 L69.3483242,51.7088978 C69.3483242,50.9756585 69.2327446,50.4263261 69.0015855,50.0656774 C68.7704264,49.7050288 68.3610822,49.5235102 67.7711449,49.5235102 C67.1017466,49.5235102 66.616152,49.7217476 66.3143609,50.1182223 C66.0133725,50.5123085 65.8640823,51.1643422 65.8640823,52.0695465 L65.8640823,56.7245415 L63.4104247,56.7245415 L63.4104247,47.8349102 L65.7509106,47.8349102 Z M78.3755688,47.8349102 L78.3755688,49.468577 L76.5720462,49.468577 L76.5720462,53.8704014 C76.5720462,54.2835949 76.6418755,54.5582611 76.7815341,54.6967884 C76.9211927,54.8353157 77.1981021,54.902191 77.6122622,54.902191 C77.7519208,54.902191 77.8843557,54.902191 78.0119748,54.8854721 C78.1340628,54.874671 78.2554491,54.8571289 78.3755688,54.8329273 L78.3755688,56.7245415 C78.1460778,56.7618447 77.9144731,56.7849771 77.6820915,56.7938051 C77.4292612,56.8057472 77.1788388,56.810524 76.9380481,56.810524 C76.5754566,56.8115711 76.2132833,56.7860251 75.8544898,56.7340951 C75.5373629,56.6898908 75.2312205,56.5878602 74.9515245,56.4331565 C74.6901073,56.2825434 74.477178,56.0614 74.3375082,55.7954532 C74.1724614,55.459108 74.0946623,55.0872198 74.1111649,54.7135072 L74.1111649,49.4590234 L72.6206702,49.4590234 L72.6206702,47.8253566 L74.1111649,47.8253566 L74.1111649,45.1694538 L76.5720462,45.1694538 L76.5720462,47.8349102 L78.3755688,47.8349102 Z M79.8660634,49.1413659 C80.1131231,48.7686574 80.4425043,48.4566464 80.8292263,48.2289965 C81.2398354,47.9932033 81.6875454,47.8276814 82.1535754,47.7393741 C82.6418982,47.6420972 83.138773,47.5932923 83.6368463,47.5936816 C84.0952327,47.5938146 84.5530488,47.6257378 85.0069456,47.6892177 C85.4452143,47.7450884 85.8718468,47.8692202 86.2710969,48.0570316 C86.64228,48.232071 86.9640583,48.4954492 87.2077729,48.8237085 C87.4667747,49.2058166 87.594313,49.6607323 87.5713669,50.1206107 L87.5713669,54.7469448 C87.5708121,55.1325329 87.5941324,55.5177908 87.6411962,55.9005429 C87.6627292,56.1888453 87.7447446,56.4695063 87.8819869,56.7245415 L85.3970266,56.7245415 C85.3505717,56.5868792 85.3127751,56.4464897 85.2838549,56.3041828 C85.2550486,56.1590033 85.2349474,56.012257 85.2236572,55.8647169 C84.8422706,56.2595583 84.3645172,56.5499763 83.8367026,56.7078227 C83.3082244,56.866998 82.7588543,56.9474884 82.2065493,56.9466629 C81.7999322,56.950263 81.3947696,56.8980186 81.0025957,56.7914167 C80.6526415,56.6974859 80.3251636,56.5350733 80.0394327,56.3137364 C79.7603824,56.0936298 79.5376346,55.8113132 79.3892978,55.4897378 C79.2223228,55.1138117 79.1401441,54.7062465 79.148507,54.2955369 C79.1316936,53.8641085 79.2244274,53.435404 79.4181927,53.0487912 C79.5832685,52.7366828 79.8210034,52.4681224 80.11167,52.2653954 C80.4053631,52.0664928 80.7310791,51.9186849 81.0748329,51.8283179 C81.436963,51.7288236 81.8043184,51.6490906 82.1752465,51.5894777 C82.5460643,51.5321561 82.9096583,51.4843881 83.2684365,51.4509504 C83.593029,51.4237747 83.9150332,51.3718729 84.2315994,51.2957043 C84.4702821,51.2443185 84.6946827,51.1415879 84.8889581,50.9947657 C85.0559964,50.8520183 85.1407864,50.6363921 85.1153014,50.4191609 C85.1254468,50.2022986 85.0807482,49.9863631 84.9852744,49.7910112 C84.9038978,49.6424844 84.7842473,49.5180339 84.6385357,49.4303626 C84.4837313,49.34096 84.3127545,49.282536 84.1352831,49.2583976 C83.9319889,49.228802 83.7267366,49.2144309 83.5212667,49.2154064 C83.1153117,49.1922783 82.71285,49.3013039 82.3751029,49.5258986 C82.0723534,49.7850554 81.8968648,50.1610403 81.8935214,50.5576882 L79.4326401,50.5576882 C79.4496017,50.0560825 79.5990601,49.5676885 79.8660634,49.1413659 Z M84.7300362,52.5902181 C84.5649305,52.6427903 84.3968994,52.6858533 84.2267836,52.7191918 C84.0485985,52.7526294 83.8607817,52.7812902 83.6633333,52.8051742 C83.4682928,52.8266698 83.2708444,52.8553307 83.073396,52.8911567 C82.8884044,52.9246868 82.7058176,52.9701632 82.526801,53.0272956 C82.359317,53.0818603 82.2016392,53.1624791 82.059667,53.2661358 C81.9271164,53.365043 81.8178401,53.4913635 81.7394153,53.636338 C81.6527302,53.8131019 81.6113752,54.0083571 81.61902,54.2047777 C81.6119499,54.3950165 81.6533583,54.5839522 81.7394153,54.7541101 C81.8156612,54.8989866 81.9295503,55.0210234 82.0692986,55.1075935 C82.216752,55.1973986 82.3802529,55.2582147 82.5508801,55.2867236 C82.739756,55.3225018 82.9316746,55.3400985 83.123962,55.3392685 C83.5143877,55.361277 83.9035999,55.2787857 84.2508627,55.1004283 C84.4943486,54.9623465 84.6976016,54.7640315 84.8408,54.5248235 C84.9653982,54.3166951 85.0472342,54.0861636 85.0815907,53.8465174 C85.1070165,53.6636215 85.1214893,53.4793915 85.124933,53.2947966 L85.124933,52.3848155 C85.0084074,52.478689 84.8741473,52.5485234 84.7300362,52.5902181 Z M91.8165075,44.4457681 L91.8165075,56.7245415 L89.3532183,56.7245415 L89.3532183,44.4457681 L91.8165075,44.4457681 Z M108.093961,44.4457681 L108.093961,46.7171382 L101.558901,46.7171382 L101.558901,49.3443801 L107.556998,49.3443801 L107.556998,51.4437852 L101.558901,51.4437852 L101.558901,54.4555598 L108.23362,54.4555598 L108.23362,56.7245415 L98.8427811,56.7245415 L98.8427811,44.4457681 L108.093961,44.4457681 Z M115.845015,55.5900507 C115.584295,56.0457402 115.187093,56.4096755 114.708483,56.6313938 C113.630499,57.0780329 112.412577,57.0528831 111.354268,56.5621302 C110.858952,56.314092 110.428626,55.9551217 110.09734,55.5136218 C109.758977,55.0538609 109.506185,54.537813 109.350889,53.9898215 C109.186454,53.4084818 109.105394,52.8070656 109.110098,52.203297 C109.10573,51.6183851 109.186836,51.035932 109.350889,50.4740941 C109.506585,49.9423993 109.759618,49.4436719 110.09734,49.0028386 C110.430442,48.5763235 110.853728,48.2273942 111.337412,47.9806027 C111.87479,47.7131518 112.470026,47.5803087 113.071106,47.5936816 C113.59546,47.5926228 114.113536,47.7068184 114.588087,47.9280579 C115.054843,48.1415283 115.4489,48.4850905 115.722212,48.9168562 L115.75833,48.9168562 L115.75833,44.4457681 L118.228843,44.4457681 L118.228843,56.7245415 L115.888357,56.7245415 L115.888357,55.5900507 L115.845015,55.5900507 Z M115.739067,51.1953914 C115.679523,50.8779908 115.559381,50.5747996 115.385104,50.3021292 C115.21936,50.0464399 114.997011,49.8316101 114.73497,49.6739795 C114.427984,49.5040987 114.079723,49.4214574 113.728464,49.4351394 C113.372026,49.4233179 113.018831,49.5057493 112.705104,49.6739795 C112.433786,49.8295652 112.204835,50.0484626 112.038113,50.3116828 C111.865063,50.5894365 111.742032,50.894927 111.674519,51.2144987 C111.598482,51.5613052 111.560537,51.9152603 111.561348,52.2701722 C111.561764,52.6176644 111.602976,52.9639264 111.684151,53.3019618 C111.756788,53.6301748 111.888963,53.9425594 112.074232,54.2238849 C112.248073,54.487618 112.478244,54.7102167 112.748446,54.8759185 C113.044804,55.049356 113.384504,55.1362837 113.728464,55.1267007 C114.082696,55.1394592 114.433809,55.0569309 114.744601,54.8878606 C115.01208,54.7299706 115.235557,54.5083041 115.394736,54.2429921 C115.561933,53.9583848 115.678416,53.6473184 115.739067,53.3234574 C115.810052,52.9719604 115.845543,52.6143212 115.845015,52.2558418 C115.845839,51.8997191 115.810342,51.5444271 115.739067,51.1953914 Z M119.964944,46.4591908 L119.964944,44.4457681 L122.428233,44.4457681 L122.428233,46.4591908 L119.964944,46.4591908 Z M122.428233,47.8349102 L122.428233,56.7245415 L119.964944,56.7245415 L119.964944,47.8349102 L122.428233,47.8349102 Z M126.266438,54.5152699 C126.372267,54.6990418 126.517819,54.8572815 126.692637,54.9786198 C126.873281,55.1036828 127.075767,55.1943872 127.289798,55.2461208 C127.519606,55.3039128 127.75583,55.3328004 127.992907,55.3321033 C128.175925,55.33141 128.358349,55.3113939 128.537094,55.2723932 C128.719769,55.2356663 128.895886,55.1720695 129.05961,55.0837095 C129.21283,54.9988359 129.345219,54.8813853 129.447283,54.7397796 C129.55711,54.580563 129.612019,54.3903575 129.603797,54.1976124 C129.603797,53.8297986 129.358191,53.5543362 128.866978,53.3712254 C128.19625,53.1402868 127.509888,52.9567175 126.813033,52.821893 C126.454254,52.7406874 126.105108,52.6475397 125.765593,52.5376732 C125.4429,52.4367029 125.135803,52.2920335 124.852996,52.1077609 C124.591465,51.9345105 124.372563,51.7051377 124.212493,51.43662 C124.043626,51.1346575 123.960413,50.7929477 123.971702,50.4478217 C123.951151,49.9559821 124.068689,49.4681423 124.311217,49.0386647 C124.528918,48.6776895 124.836547,48.3783095 125.204551,48.1692864 C125.59143,47.950588 126.013343,47.7995094 126.451847,47.7226553 C126.920362,47.6361798 127.395955,47.5930036 127.872512,47.5936816 C128.347176,47.5922024 128.82076,47.638617 129.285954,47.7322089 C129.718062,47.8138572 130.132189,47.970727 130.50917,48.1955589 C130.868639,48.4147529 131.173265,48.7120116 131.400096,49.0649371 C131.655117,49.4778031 131.801655,49.9475253 131.826296,50.4311029 L129.48581,50.4311029 C129.450494,49.9534225 129.271506,49.634969 128.948846,49.4757422 C128.591463,49.3065987 128.198473,49.2247066 127.802683,49.236902 C127.652238,49.2380789 127.50195,49.2468477 127.352404,49.2631744 C127.200569,49.2778561 127.051933,49.3157211 126.911757,49.3754293 C126.781292,49.4275741 126.664997,49.5093842 126.572242,49.6142695 C126.355572,49.9180634 126.399894,50.3341728 126.675782,50.586349 C126.863904,50.7361583 127.078722,50.8495838 127.309062,50.9207252 C127.601643,51.0183586 127.89998,51.0981214 128.202395,51.1595654 C128.537094,51.2288291 128.879017,51.3052579 129.225756,51.3840752 C129.579752,51.4631543 129.929369,51.5604136 130.273196,51.6754602 C130.598318,51.7822695 130.905815,51.9359794 131.185792,52.1316449 C131.448111,52.3178409 131.666628,52.5582181 131.826296,52.8362234 C131.996585,53.1566268 132.079586,53.5155789 132.067086,53.8775666 C132.114462,54.8567745 131.623269,55.7845833 130.783672,56.3017944 C130.382741,56.5507128 129.938505,56.7232417 129.47377,56.810524 C128.980468,56.9070994 128.478871,56.9558929 127.976052,56.9562165 C127.463148,56.9567642 126.95156,56.9047392 126.449439,56.8009703 C125.979617,56.7091726 125.530233,56.5344345 125.122682,56.2850756 C124.731213,56.0451018 124.401452,55.7180128 124.159519,55.3297149 C123.894648,54.8785807 123.754291,54.366186 123.752582,53.844129 L126.093068,53.844129 C126.0911,54.0789825 126.150853,54.3102928 126.266438,54.5152699 Z M133.299935,50.354674 C133.702202,49.2379142 134.576589,48.3514146 135.693395,47.9280579 C136.302017,47.69788 136.949163,47.5844121 137.600458,47.5936816 C138.254067,47.584831 138.903502,47.6982703 139.514744,47.9280579 C140.638142,48.3462613 141.518916,49.2338786 141.922651,50.354674 C142.148614,50.9746569 142.259562,51.6300931 142.250127,52.2892794 C142.259837,52.9453726 142.148864,53.5977241 141.922651,54.2143313 C141.716786,54.7639322 141.397789,55.264987 140.985975,55.6855867 C140.570645,56.0985272 140.07049,56.4178576 139.51956,56.6218402 C138.907252,56.8470141 138.258247,56.9579491 137.605273,56.9490513 C136.95463,56.9582231 136.307942,56.8472655 135.698211,56.6218402 C135.155193,56.4148119 134.662733,56.0956778 134.253466,55.6855867 C133.840868,55.2656004 133.52176,54.7643713 133.31679,54.2143313 C133.090578,53.5977241 132.979604,52.9453726 132.989315,52.2892794 C132.974474,51.6311132 133.079707,50.9757066 133.299935,50.354674 Z M135.536881,53.3282342 C135.600012,53.6509624 135.720693,53.9599278 135.893251,54.2406037 C136.057384,54.5077646 136.286787,54.7295584 136.560242,54.8854721 C136.879445,55.0552977 137.238488,55.1377363 137.600458,55.1243123 C137.965401,55.1367104 138.327285,55.0543819 138.650305,54.8854721 C138.92685,54.7311184 139.158955,54.5091156 139.324519,54.2406037 C139.497077,53.9599278 139.617759,53.6509624 139.680889,53.3282342 C139.750717,52.9862774 139.785408,52.6381788 139.784429,52.2892794 C139.785174,51.9364397 139.75049,51.5844035 139.680889,51.2383827 C139.619858,50.9158051 139.499024,50.6072574 139.324519,50.3284016 C139.156304,50.0620111 138.924809,49.8405914 138.650305,49.6835331 C138.329736,49.5071116 137.966853,49.420428 137.600458,49.432751 C136.909317,49.4002157 136.255116,49.7434289 135.893251,50.3284016 C135.718747,50.6072574 135.597912,50.9158051 135.536881,51.2383827 C135.467281,51.5844035 135.432596,51.9364397 135.433341,52.2892794 C135.432363,52.6381788 135.467053,52.9862774 135.536881,53.3282342 Z M145.941449,47.8349102 L145.941449,49.0721023 L145.992015,49.0721023 C146.271288,48.5864505 146.690556,48.1946993 147.195968,47.9471651 C147.671333,47.716317 148.193305,47.5954556 148.722582,47.5936816 C149.275323,47.5749458 149.826271,47.6658912 150.343103,47.8611826 C150.734827,48.0163365 151.078589,48.2708343 151.339977,48.5991988 C151.595425,48.9407647 151.769913,49.3350817 151.850453,49.7527968 C151.954009,50.2476699 152.004056,50.7520872 151.999743,51.2574899 L151.999743,56.7245415 L149.546086,56.7245415 L149.546086,51.7088978 C149.546086,50.9756585 149.430506,50.4263261 149.199347,50.0656774 C148.968188,49.7050288 148.558844,49.5235102 147.968907,49.5235102 C147.299508,49.5235102 146.817927,49.7217476 146.524162,50.1182223 C146.223174,50.5123085 146.073883,51.1643422 146.073883,52.0695465 L146.073883,56.7245415 L143.600963,56.7245415 L143.600963,47.8349102 L145.941449,47.8349102 Z"
             id="Logo-Continental-Edison" />
        </g>
      </g>
    </g>
  </g>
  <metadata
     id="metadata244">
    <rdf:RDF>
      <cc:Work
         rdf:about="">
        <dc:title>Continental edison logo</dc:title>
        <dc:creator>
          <cc:Agent>
            <dc:title>Arosio Stefano</dc:title>
          </cc:Agent>
        </dc:creator>
        <dc:source>Arosio Stefano</dc:source>
        <dc:contributor>
          <cc:Agent>
            <dc:title>Arosio Stefano</dc:title>
          </cc:Agent>
        </dc:contributor>
      </cc:Work>
    </rdf:RDF>
  </metadata>
</svg>
