<?xml version="1.0" encoding="UTF-8"?>
<!-- Generator: Adobe Illustrator 13.0.1, SVG Export Plug-In  -->
<!DOCTYPE svg PUBLIC "-//W3C//DTD SVG 1.1//EN" "http://www.w3.org/Graphics/SVG/1.1/DTD/svg11.dtd" [
	<!ENTITY ns_flows "http://ns.adobe.com/Flows/1.0/">
]>
<svg version="1.1" xmlns="http://www.w3.org/2000/svg" xmlns:xlink="http://www.w3.org/1999/xlink" xmlns:a="http://ns.adobe.com/AdobeSVGViewerExtensions/3.0/" x="0px" y="0px" width="114px" height="35px" viewBox="-0.783 -0.359 114 35" enable-background="new -0.783 -0.359 114 35" xml:space="preserve">
<defs>
</defs>
<polyline points="19.788,18.236 0,18.236 0,22.889 5.121,22.889 5.121,33.73 14.631,33.73 14.631,22.889 19.788,22.889 19.788,18.236"/>
<path d="M19.741,18.236l8.963,8.712v6.782h9.471v-6.782l8.962-8.712H36.456l-1.865,2.394c-0.403,0.527-0.766,1.073-1.098,1.645  c-0.292-0.505-0.621-0.986-0.952-1.471l-2.009-2.567H19.741"/>
<path fill-rule="evenodd" clip-rule="evenodd" d="M56.175,22.428h1.242c0.366,0,2.926-0.13,2.926,1.273  c0,0.396-0.217,0.659-0.366,0.789c-0.583,0.526-1.569,0.55-2.522,0.55h-1.279V22.428 M47.322,18.236V33.73h8.853v-5.684l4.792,5.684  h10.02l-6.255-6.21c0.807-0.176,1.392-0.33,2.085-0.615c1.17-0.506,2.708-1.492,2.708-3.512c0-1.602-1.021-2.545-1.682-3.051  c-1.866-1.47-4.573-1.951-7.534-2.064c-0.768-0.042-1.536-0.042-2.306-0.042H47.322"/>
<path d="M111.826,19.291c-1.172-0.331-3.292-1.033-6.551-1.34c-1.169-0.109-2.084-0.132-2.521-0.132c-3.915,0-7.902,0.9-9.73,3.14  c-0.329,0.394-0.949,1.25-0.949,2.458c0,2.764,3.401,3.708,4.937,4.036c1.026,0.199,2.707,0.419,3.805,0.528  c0.695,0.086,1.865,0.176,1.865,0.812c0,0.482-0.842,0.942-2.45,0.942c-2.305,0-4.536-0.921-6.328-1.668l-3,4.259  c1.756,0.55,5.377,1.756,10.608,1.756c3.07,0,5.56-0.417,7.863-1.646c2.67-1.468,2.998-3.094,2.998-3.95  c0-1.054-0.476-3.137-4.791-4.147c-1.099-0.24-3-0.506-4.131-0.659c-0.732-0.087-1.939-0.175-1.939-0.79  c0-0.481,0.694-0.768,2.121-0.789c2.049,0,3.729,0.593,5.449,1.207L111.826,19.291"/>
<polyline points="71.931,18.236 71.931,33.73 89.525,33.73 89.525,29.407 80.71,29.407 80.71,27.959 88.608,27.959 88.608,23.832 80.71,23.832 80.71,22.56 89.268,22.56 89.268,18.236 71.931,18.236"/>
<path d="M4.06,5.868v7.688H0.006V2.222H12.73c2.195,0,3.161,0.235,4.292,1.108c1.11,0.857,1.429,2.254,1.462,3.39  c0,0.028,0.009,6.837,0,6.829h-4.051V9.623c-0.033-1.216,0.208-2.649-0.392-3.289c-0.636-0.681-1.66-0.422-2.94-0.466  C11.068,5.866,4.066,5.868,4.06,5.868"/>
<rect x="63.586" y="2.217" width="4.051" height="11.336"/>
<path d="M77.499,5.713c-4.052,0-4.488,1.107-4.488,2.395c0,1.181,0.873,2.109,4.29,2.109l9.274,0.015l-2.733,3.369  c0.009,0.007-8.853-0.02-8.886-0.022c-4.402-0.136-5.88-2.681-5.89-5.765c-0.007-2.889,1.955-5.535,7.678-5.578l15.434,0.022  L92.154,13.57l-4.031,0.021V5.732C88.134,5.741,77.532,5.713,77.499,5.713"/>
<path d="M97.954,5.846v7.687h-4.055V2.198h12.724c2.193,0,3.162,0.236,4.293,1.109c1.109,0.856,1.429,2.251,1.462,3.389  c0,0.028,0.008,6.836,0,6.832h-4.056v-3.93c-0.028-1.214,0.212-2.648-0.389-3.288c-0.636-0.68-1.659-0.42-2.938-0.465  C104.962,5.846,97.96,5.846,97.954,5.846"/>
<path fill-rule="evenodd" clip-rule="evenodd" d="M27.598,2.192h9.983c4.389,0,7.948,2.54,7.948,5.672  c0,3.133-3.559,5.673-7.948,5.673h-9.983c-4.387,0-7.945-2.54-7.945-5.673C19.653,4.732,23.211,2.192,27.598,2.192 M29.095,5.627  h6.989c3.073,0,5.563,0.045,5.563,2.237c0,2.193-2.49,2.303-5.563,2.303h-6.989c-3.069,0-5.562-0.109-5.562-2.303  C23.533,5.672,26.026,5.627,29.095,5.627"/>
<rect x="46.675" width="4.055" height="13.553"/>
<polyline points="51.078,6.907 57.231,2.235 62.998,2.258 56.163,6.977 62.938,13.559 57.457,13.559 51.078,6.907"/>
</svg>